<svg width="547" height="408" xmlns="http://www.w3.org/2000/svg">
 <g id="Layer_1">
  <title>Layer 1</title>
  <rect stroke="#000" rx="25" id="svg_2" height="408.24978" width="547" y="0.00001" x="0" stroke-width="0" fill="#000000"/>
  <path id="svg_1" d="m270.16201,44.44514c43.46871,0 78.73301,35.29826 78.73301,78.76696c0,43.46873 -35.2643,78.73302 -78.73301,78.73302c-43.46873,0 -78.73303,35.29829 -78.73303,78.76698c0,43.46872 35.2643,78.73302 78.73303,78.73302c86.93741,0 157.49996,-70.5626 157.49996,-157.50001c0,-86.93742 -70.56255,-157.49998 -157.49996,-157.49998l0,0.00001zm0,54.15229c-13.59096,0 -24.61469,11.02369 -24.61469,24.61467c0,13.591 11.0237,24.61467 24.61469,24.61467c13.59098,0 24.61466,-11.02369 24.61466,-24.61467c0,-13.59098 -11.02368,-24.61467 -24.61466,-24.61467zm0,157.50001c13.58395,0 24.61466,11.03069 24.61466,24.61467c0,13.58395 -11.0307,24.61469 -24.61466,24.61469c-13.58397,0 -24.61469,-11.03074 -24.61469,-24.61469c0,-13.58395 11.03073,-24.61467 24.61469,-24.61467zm153.96734,-54.05196c0,86.87282 -70.42431,157.29717 -157.29719,157.29717c-86.87283,0 -157.29719,-70.42434 -157.29719,-157.29717c0,-86.87285 70.42435,-157.29722 157.29719,-157.29722c86.87288,0 157.29719,70.42436 157.29719,157.29722z" stroke-width="0" stroke="#000" fill="#FFAAB8"/>
  <text transform="matrix(2.66856 0 0 1 -809.124 34.7368)" stroke="#000" xml:space="preserve" text-anchor="start" font-family="'Stick No Bills'" font-size="24" id="svg_3" y="205.48665" x="390.62703" stroke-width="0" fill="#ffffff">ABOUT</text>
 </g>
</svg>