<svg width="800" height="600" xmlns="http://www.w3.org/2000/svg">

 <g>
  <title>Layer 1</title>
  <rect stroke="#000" rx="25" id="svg_8" height="460" width="698.99997" y="76" x="49" stroke-width="0" fill="#273141"/>
  <rect stroke="#000" rx="25" stroke-width="0" id="svg_2" height="402.00001" width="613.99999" y="104" x="90" fill="#000000"/>
  <path stroke-width="0" id="svg_1" d="m375.94907,288.65566c1.58789,1.0509 4.94831,-0.93948 6.58089,-1.18541c-1.8375,-2.38875 5.0837,-14.0263 2.69495,-18.25254c-0.735,-9.555 -19.33946,-31.12342 -21.68249,-33.62624c0.89376,-1.67845 10.91004,-0.11657 10.61105,0.12421c-4.1798,3.36703 14.10479,22.69062 16.21645,33.86953c3.89094,-0.21535 9.00184,-1.67315 11.27005,0.735c2.11812,-2.31451 18.46143,-19.9989 19.3549,-35.27999c0.12804,-2.18986 8.99831,-0.80394 7.32971,0.53082c-2.67466,9.51413 -21.53608,36.22667 -23.00961,37.19922c1.7149,8.3299 1.02062,8.90085 11.97432,15.37796c4.92964,-11.57551 15.43323,-21.40143 25.0535,-31.18104c10.86286,-10.9806 18.15317,-21.49992 30.11926,-32.93078c15.75237,-14.52051 35.8699,-27.76991 54.29517,-35.6791c12.81766,-5.50206 34.29347,-10.21885 37.58568,-10.52755c6.09903,-0.59212 11.61447,-0.48701 18.84378,0.58712c10.66705,1.58481 21.08259,2.46989 32.28193,7.72691c10.53064,6.747 6.89033,15.20303 4.92685,23.12368c-16.21895,17.88593 -32.83068,39.30676 -38.06241,61.22137c-1.759,8.11454 -4.92171,22.09748 -12.38607,30.88087c-12.00019,13.51062 -26.68667,13.01097 -40.48555,14.84244c8.40796,2.40742 17.52725,10.26809 25.70853,18.16714c12.76239,12.42429 18.98108,25.16551 15.68534,39.03657c-0.70163,2.90942 -12.87029,24.97706 -18.82217,31.90134c-22.59066,26.36635 -53.34599,44.24758 -78.13415,41.3455c-8.92657,-1.04502 -33.54907,-19.78752 -37.97597,-25.31795c-10.98957,-13.72891 -20.01625,-30.28861 -20.38728,-44.74635c-1.36607,-1.36489 -3.03673,-1.46574 -2.30011,-3.29177c-1.36886,4.18141 -5.71565,17.79861 -12.15087,26.40722c-9.30348,12.4456 -17.81978,-6.15871 -21.26693,-21.24605c-1.18173,-5.1719 -0.31443,-6.06728 -1.6927,-9.15986c-6.51724,2.47283 -3.08568,9.6429 -5.64333,15.435c-2.1684,5.04386 -11.87936,20.44975 -14.56108,23.96188c-8.5723,11.22668 -27.82077,28.21532 -41.78033,32.29178c-12.95614,3.78348 -23.93703,3.25267 -34.34977,-2.08799c-13.43065,-6.88842 -32.35837,-22.88657 -44.00282,-35.89474c-14.74116,-16.09561 -27.62526,-40.27858 -15.36267,-57.31279c7.82687,-10.62839 22.55964,-26.46749 36.95638,-30.35961c-10.1627,-1.24465 -32.64752,-7.94255 -41.00946,-26.54643c-2.68393,-5.89837 -3.67956,-15.06926 -4.36222,-21.6309c-1.11073,-10.83302 -6.05346,-23.27921 -10.15652,-33.94597c-3.29839,-9.75198 -9.12811,-22.23668 -15.2292,-32.90594c-6.39391,-11.19625 -11.63593,-29.70972 -0.50862,-38.82622c3.88697,-3.18505 15.92259,-6.89988 18.43791,-7.16478c8.79251,-0.93889 20.77154,3.37894 29.664,5.96937c5.8259,1.71123 31.38846,10.84419 38.45784,15.87291c46.60472,33.15173 79.7441,74.44666 101.27386,112.49216z" stroke="#000" fill="#FFFA8D"/>
  <path id="svg_4" d="m384.28752,210.64824c-21.38822,-15.90168 -29.03535,-25.9608 -29.09733,-38.27498c-0.05652,-11.22588 9.38348,-22.06051 19.16637,-21.99803c4.88514,0.03126 15.36408,4.163 19.07471,7.52107c1.86963,1.69199 2.75518,1.52514 6.91772,-1.30338c11.32867,-7.69802 22.39124,-7.8596 29.55584,-0.43165c11.45056,11.87141 9.36586,26.04804 -5.9928,40.75304c-8.16555,7.81803 -25.99731,21.68765 -27.88316,21.68765c-0.57384,0 -5.85744,-3.57918 -11.74134,-7.95373l0,0z" stroke-width="0" stroke="#000" fill="#FFAAB8"/>
  <path stroke="#000" id="svg_7" d="m63.36558,378.33014c-0.03804,-42.84283 -0.07607,-85.68567 -0.11411,-128.52849c34.34468,0.49241 68.83501,-1.16651 103.0634,1.26444c16.6913,5.55257 14.28585,40.11801 14.01479,65.9357c-0.7322,19.46971 9.75218,58.06609 -17.47938,63.86746c-13.57639,0.00068 -13.62982,5.43568 -12.24406,15.26725c1.60815,14.72895 -3.06046,47.72364 -25.36327,26.81039l-61.87738,-44.61675l0.00001,-0.00001zm105.11127,-14.00531c0.05519,-38.51022 -0.40515,-71.36498 -2.68368,-96.73771c-20.24461,-8.63049 -47.60071,-4.4304 -70.50636,-4.56155c-9.00416,4.10451 21.35934,17.73345 27.79915,23.02171c24.44783,11.37059 31.74201,32.04912 27.52032,55.41891c0,9.09075 0,18.18151 0,27.27226c4.5084,-0.00511 13.83559,-2.09866 17.87057,-4.41364l-0.00001,0.00002z" stroke-width="0" fill="#CBFFFF"/>
 </g>
</svg>