<svg width="642" height="406" xmlns="http://www.w3.org/2000/svg">
 <g id="Layer_1">
  <title>Layer 1</title>
  <rect rx="25" id="svg_9" height="406" width="642" y="0" x="0" stroke-width="0" stroke="#000" fill="#A4FFFF"/>
  <ellipse ry="86.5" rx="86.5" id="svg_1" cy="142.5" cx="276.5" stroke-width="0" stroke="#000" fill="#729C62"/>
  <ellipse ry="66.5" rx="66.5" id="svg_2" cy="319.5" cx="279.5" stroke-width="0" stroke="#000" fill="#CE7975"/>
  <ellipse ry="106" rx="106" id="svg_3" cy="191" cx="482" stroke-width="0" stroke="#000" fill="#4B252D"/>
  <ellipse ry="84.5" rx="84.5" id="svg_4" cy="233.5" cx="367.5" stroke-width="0" stroke="#000" fill="#000000"/>
  <path id="svg_5" d="m50.36501,162.53587l0,26.64517l42.18278,0l20.61864,60.08012l116.08374,0l38.06109,-91.34779l-180.46561,0l0,4.62177l-36.48065,0l0,0.00073zm96.38435,116.25141c0,9.45859 -7.66748,17.12607 -17.12534,17.12607s-17.12607,-7.6682 -17.12607,-17.12607s7.66748,-17.12534 17.12607,-17.12534s17.12534,7.66748 17.12534,17.12534zm79.31442,0c0,9.45859 -7.66748,17.12607 -17.12534,17.12607s-17.12607,-7.6682 -17.12607,-17.12607s7.6682,-17.12534 17.12607,-17.12534s17.12534,7.66748 17.12534,17.12534z" stroke-width="0" stroke="#000" fill="#4B252D"/>
  <path id="svg_7" d="m154.51623,168.89826c-6.2534,-3.35268 0.15867,-9.97321 5.37291,-7.83214c3.88021,-0.00885 7.76044,-0.00301 11.64065,-0.00471c0,-7.63149 0,-15.26299 0,-22.89449c-9.71994,-11.72523 -19.43989,-23.45046 -29.15983,-35.17569c21.99993,-0.08166 44.00007,-0.08158 66,0c-9.5452,11.78317 -19.0904,23.56633 -28.63559,35.3495c0,7.57356 0,15.14712 0,22.72068c5.7292,0.05108 11.46821,-0.13889 17.18901,0.19336c4.50426,1.20999 2.70119,8.60766 -1.67628,7.82783c-13.57653,-0.04724 -27.15739,0.08604 -40.73088,-0.18434l0,0zm28.23031,-41.44967c4.37548,-1.66737 3.76036,-8.88221 -0.93325,-9.61784c-7.08023,-1.95035 -8.60911,10.33238 -1.1673,10.04414c0.7186,0.00472 1.44875,-0.09704 2.10054,-0.4263l0,0z" stroke-width="0" stroke="#000" fill="#FFEBFF"/>
  <text font-weight="bold" transform="matrix(1.29628 0 0 1.29628 -93.6247 -60.5943)" stroke="#000" xml:space="preserve" text-anchor="start" font-family="Noto Sans JP" font-size="24" id="svg_10" y="104.88425" x="161.71242" stroke-width="0" fill="#000000">Welcome to minimaltechblog</text>
 </g>
</svg>